<svg xmlns="http://www.w3.org/2000/svg"  viewBox="0 0 100 100" width="250px" height="250px"><ellipse cx="50" cy="52" fill="#fed5b3" rx="43" ry="35"/><path fill="#39c1d7" d="M52.5,35.5c18.05,0,31.798,5.146,39.423,8.73C87.58,28.642,70.466,17,50,17 C28.001,17,9.875,30.45,7.322,47.796C9.875,46.205,27.968,35.5,52.5,35.5z"/><path fill="#fff" d="M52,49.951C52,56.558,46.505,62.5,39.919,62.5c-6.385,0-10.38-5.63-9.218-11.925 c1.047-5.676,6.028-10.107,11.335-10.39C47.481,39.894,52,44.026,52,49.951z"/><path fill="#fff" d="M52,49.766C52,56.471,57.495,62.5,64.081,62.5c6.385,0,10.38-5.713,9.218-12.101 c-1.047-5.759-6.028-10.256-11.335-10.543C56.519,39.562,52,43.754,52,49.766z"/><polygon fill="#f9e65c" points="36.5,16.5 36.5,19.5 37.5,20.5 39.5,20.5 42.53,17.5 44.5,20.5 48.5,19.5 50.742,20.5 53.5,20.5 55.5,19.5 59.5,19.5 60.516,17.968 58.5,15.5 55.5,15.5 51.5,12.5 48.5,12.5 47.5,13.5 43.5,13.5"/><path fill="#f9e65c" d="M92.65,47.56L92.5,47.5c-4.5-2-17-8-40-8c-25.1,0-44.87,11.63-45.49,11.99 c0.02-1.25,0.12-2.48,0.3-3.69c2.55-1.59,20.66-12.3,45.19-12.3c18.05,0,31.82,5.15,39.44,8.73 C92.24,45.32,92.48,46.43,92.65,47.56z"/><g><path fill="#1f212b" d="M39.919,63c-3.024,0-5.703-1.218-7.545-3.43c-1.998-2.401-2.788-5.712-2.166-9.086 c1.081-5.855,6.154-10.498,11.801-10.799c2.789-0.142,5.396,0.793,7.355,2.652c2.022,1.917,3.136,4.621,3.136,7.614 C52.5,56.902,46.621,63,39.919,63z M42.575,40.669c-0.17,0-0.342,0.005-0.514,0.014c-5.112,0.272-9.887,4.657-10.87,9.982 c-0.567,3.08,0.144,6.093,1.951,8.265C34.791,60.91,37.197,62,39.919,62C46.088,62,51.5,56.37,51.5,49.951 c0-2.716-1.003-5.162-2.824-6.889C47.038,41.509,44.888,40.669,42.575,40.669z"/><path fill="#1f212b" d="M64.081,63C57.379,63,51.5,56.816,51.5,49.767c0-3.064,1.132-5.824,3.188-7.771 c1.953-1.851,4.559-2.794,7.305-2.638c5.646,0.305,10.719,5.014,11.8,10.953c0.628,3.453-0.181,6.833-2.217,9.273 C69.736,61.787,67.075,63,64.081,63z M61.425,40.342c-2.287,0-4.419,0.835-6.05,2.38c-1.854,1.756-2.875,4.258-2.875,7.045 C52.5,56.284,57.912,62,64.081,62c2.692,0,5.081-1.086,6.727-3.058c1.846-2.211,2.575-5.292,2-8.453 c-0.983-5.405-5.758-9.856-10.87-10.133C61.766,40.346,61.595,40.342,61.425,40.342z"/><path fill="#1f212b" d="M56.5,75c-5.751,0-9.117-1.987-9.258-2.072c-0.236-0.142-0.312-0.449-0.171-0.685 c0.142-0.236,0.449-0.315,0.686-0.172C47.789,72.09,51.047,74,56.5,74c0.276,0,0.5,0.224,0.5,0.5S56.776,75,56.5,75z"/><path fill="#1f212b" d="M52,80c-4.565,0-6.638-1.01-6.724-1.053c-0.246-0.123-0.346-0.422-0.224-0.669 c0.122-0.246,0.424-0.347,0.669-0.227C45.741,78.062,47.704,79,52,79c4.355,0,7.312-0.965,7.342-0.975 c0.262-0.085,0.545,0.055,0.633,0.317c0.087,0.262-0.055,0.545-0.316,0.632C59.532,79.016,56.529,80,52,80z"/><path fill="#1f212b" d="M50.5,84c-18.478,0-33.188-12.997-33.334-13.128c-0.205-0.184-0.223-0.5-0.038-0.706 s0.501-0.222,0.706-0.039C17.978,70.256,32.413,83,50.5,83c15.377,0,29.478-9.647,33.609-14.812 c0.173-0.215,0.488-0.249,0.703-0.078c0.216,0.173,0.25,0.487,0.078,0.703C81.084,73.57,67.14,84,50.5,84z"/><path fill="#1f212b" d="M7.016,51.982c-0.087,0-0.174-0.021-0.25-0.066c-0.155-0.091-0.259-0.254-0.256-0.435 c0.021-1.269,0.124-2.532,0.306-3.755c0.021-0.145,0.105-0.273,0.229-0.351C9.077,46.109,27.619,35,52.5,35 c17.332,0,31.13,4.773,39.653,8.777c0.132,0.062,0.23,0.179,0.27,0.32c0.312,1.132,0.554,2.272,0.722,3.389 c0.027,0.177-0.043,0.355-0.184,0.466c-0.14,0.111-0.327,0.139-0.496,0.072l-0.709-0.309C87.045,45.605,74.531,40,52.5,40 C28.424,40,9.372,50.693,7.279,51.912C7.199,51.958,7.107,51.982,7.016,51.982z M7.771,48.103 c-0.115,0.824-0.193,1.666-0.233,2.515C11.854,48.232,30.012,39,52.5,39c21.999,0,34.62,5.544,39.504,7.73 c-0.132-0.711-0.295-1.43-0.485-2.146C83.072,40.644,69.507,36,52.5,36C28.558,36,10.57,46.391,7.771,48.103z"/><path fill="#1f212b" d="M44.5,21c-0.166,0-0.324-0.083-0.418-0.226l-1.635-2.489l-2.596,2.57 C39.758,20.948,39.632,21,39.5,21h-2c-0.133,0-0.26-0.053-0.354-0.146l-1-1C36.053,19.76,36,19.633,36,19.5v-3 c0-0.2,0.119-0.381,0.303-0.459l7-3C43.365,13.014,43.433,13,43.5,13h3.793l0.854-0.854C48.24,12.053,48.367,12,48.5,12h3 c0.108,0,0.214,0.035,0.3,0.1l3.867,2.9H58.5c0.15,0,0.292,0.067,0.387,0.184l2.017,2.468c0.14,0.17,0.151,0.41,0.03,0.593 l-1.017,1.532C59.824,19.916,59.668,20,59.5,20h-3.882l-1.895,0.947C53.654,20.982,53.577,21,53.5,21h-2.758 c-0.07,0-0.14-0.015-0.204-0.043l-2.084-0.93l-3.833,0.958C44.581,20.995,44.54,21,44.5,21z M50.849,20h2.533l1.895-0.947 C55.346,19.018,55.423,19,55.5,19h3.731l0.665-1.001L58.263,16H55.5c-0.108,0-0.214-0.035-0.3-0.1L51.333,13h-2.626l-0.854,0.854 C47.76,13.947,47.633,14,47.5,14h-3.897L37,16.83v2.463L37.707,20h1.587l2.885-2.855c0.106-0.105,0.26-0.157,0.404-0.142 c0.148,0.016,0.283,0.097,0.365,0.223l1.774,2.703l3.656-0.914c0.107-0.029,0.221-0.019,0.325,0.028L50.849,20z"/><path fill="#1f212b" d="M76.26,29c-0.101,0-0.202-0.03-0.29-0.093c-3.726-2.652-7.969-4.681-12.609-6.031 c-0.265-0.077-0.418-0.354-0.341-0.62c0.077-0.265,0.352-0.419,0.62-0.34c4.749,1.381,9.093,3.459,12.91,6.176 c0.225,0.16,0.277,0.472,0.117,0.697C76.569,28.927,76.416,29,76.26,29z"/><path fill="#1f212b" d="M82.824,35c-0.143,0-0.283-0.061-0.383-0.178c-0.831-0.988-1.785-1.982-2.833-2.955 c-0.203-0.188-0.215-0.504-0.026-0.707c0.189-0.203,0.506-0.214,0.706-0.027c1.079,1.001,2.061,2.025,2.919,3.045 c0.178,0.211,0.15,0.526-0.061,0.704C83.053,34.961,82.938,35,82.824,35z"/><path fill="#1f212b" d="M85.681,39c-0.17,0-0.336-0.087-0.43-0.244c-0.188-0.317-0.393-0.627-0.596-0.938l0.39-0.318 l0.418-0.274c0.24,0.366,0.451,0.689,0.647,1.018c0.142,0.237,0.063,0.544-0.174,0.686C85.856,38.978,85.769,39,85.681,39z"/><circle cx="46" cy="52" r="1" fill="#1f212b"/><circle cx="58" cy="52" r="1" fill="#1f212b"/><path fill="#1f212b" d="M59.626,16.878l0.89,1.089l-0.655,0.988C78.276,22.557,92,36.002,92,52c0,18.748-18.841,34-42,34 S8,70.748,8,52c0-14.998,12.064-27.751,28.745-32.255L36.5,19.5v-1.759C18.824,22.415,6,36.002,6,52c0,19.851,19.738,36,44,36 s44-16.149,44-36C94,34.855,79.272,20.481,59.626,16.878z"/></g></svg>