<svg xmlns="http://www.w3.org/2000/svg" width="250" height="250" viewBox="0 0 500 500"><path fill="#F1C9A5" d="M211.547 338.486h77.439V234.278h-77.439z"/><path fill="#DDAC8C" d="M227.035 282.566c5.622 16.075 28.316 25.288 44.98 25.288 6.029 0 11.896-1.007 17.543-2.848v-70.729h-62.523v48.289z"/><path fill="#F1C9A5" d="M338.085 167.734c0-71.599-39.589-112.313-88.42-112.313-48.833 0-88.42 40.714-88.42 112.313 0 96.303 39.587 129.646 88.42 129.646 48.831 0 88.42-37.357 88.42-129.646"/><path fill="#F1C9A5" d="M324.629 217.383c-16.029-1.671-26.852-18.871-24.139-38.396 2.682-19.543 17.863-34.051 33.898-32.389 16.02 1.663 26.826 18.855 24.121 38.396-2.69 19.542-17.855 34.039-33.88 32.389M141.444 184.994c-2.705-19.54 8.1-36.732 24.114-38.396 16.043-1.662 31.225 12.846 33.913 32.389 2.707 19.525-8.125 36.725-24.145 38.396-16.028 1.65-31.191-12.847-33.882-32.389"/><g transform="translate(.035 295.196)"><defs><filter id="a" filterUnits="userSpaceOnUse" x="54" y="18.351" width="391.315" height="188.842"><feColorMatrix values="1 0 0 0 0 0 1 0 0 0 0 0 1 0 0 0 0 0 1 0"/></filter></defs><mask maskUnits="userSpaceOnUse" x="54" y="18.351" width="391.315" height="188.842" id="b"><path fill="#FFF" d="M445.315 207.193V18.351H54v188.842z" filter="url(#a)"/></mask><path mask="url(#b)" fill="#F1C9A5" d="M415.087 82.669c-22.266-39.52-165.429-64.318-165.429-64.318S106.494 43.149 84.227 82.669C67.767 137.509 54 207.193 54 207.193h391.315s-9.297-74.717-30.228-124.524"/></g><g transform="translate(.035 307.622)"><defs><filter id="c" filterUnits="userSpaceOnUse" x="53.392" y="17.456" width="392.49" height="177.812"><feColorMatrix values="1 0 0 0 0 0 1 0 0 0 0 0 1 0 0 0 0 0 1 0"/></filter></defs><mask maskUnits="userSpaceOnUse" x="53.392" y="17.456" width="392.49" height="177.812" id="d"><path fill="#FFF" d="M445.315 194.767V18.091H54v176.676z" filter="url(#c)"/></mask><path mask="url(#d)" fill="#8EB3C1" stroke="#8EB3C1" d="M415.087 70.243c-10.263-24.423-67.201-41.124-110.072-52.152-1.676 27.339-26.852 53.924-56.43 53.924-29.581 0-52.609-26.585-54.289-53.924-42.868 11.028-97.063 29.073-110.07 52.152C67.767 125.084 54 194.767 54 194.767h391.315s-9.297-74.716-30.228-124.524z"/></g><g transform="translate(.035 307.622)"><defs><filter id="e" filterUnits="userSpaceOnUse" x="53.392" y="23.776" width="392.494" height="171.492"><feColorMatrix values="1 0 0 0 0 0 1 0 0 0 0 0 1 0 0 0 0 0 1 0"/></filter></defs><mask maskUnits="userSpaceOnUse" x="53.392" y="23.776" width="392.494" height="171.492" id="f"><path fill="#FFF" d="M445.315 194.767V18.091H54v176.676z" filter="url(#e)"/></mask><path mask="url(#f)" fill="#80898C" stroke="#7F7C5C" d="M415.087 70.243c-13.142-32.069-85.623-45.916-85.623-45.916L248.585 141.33 170.422 24.698c-37.593 12.97-73.189 22.466-86.196 45.545C67.767 125.084 54 194.767 54 194.767h391.315s-9.741-74.532-30.228-124.524z"/></g><path fill="#E2A350" d="M360.064 110.613c0-10.214-6.621-18.801-15.603-21.303-1.177-13.419-6.377-15.725-17.882-14.258-1.784-15.143-14.83-26.9-30.671-26.9a31.17 31.17 0 0 0-12.26 2.499c-7.292-11.878-21.108-19.899-36.965-19.899-15.774 0-29.528 7.938-36.849 19.714a31.164 31.164 0 0 0-11.816-2.313c-15.841 0-28.887 11.758-30.674 26.9-7.803-1.698-22.316 5.713-18.881 14.258-8.98 2.502-15.601 11.089-15.601 21.303 0 5.762 2.11 11.007 5.56 14.935-1.454 2.323-8.422 12.926.279 20.687a18.426 18.426 0 0 0-1.625 7.576c0 10.404 5.316 18.073 15.897 19.005 8.27.729 17.482-20.39 12.06-32.198 2.514-1.413 10.056-1.281 14.345-9.912 7.143 3.695 16.206-9.37 19.684-16.308 10.548 4.562 75.277 3.384 95.799 0 1.055 10.423 16.354 15.915 24.906 12.064-.313 5.812 7.61 12.784 10.124 14.197-5.462 7-.255 35.762 10.368 35.762 10.621 0 16.587-12.196 16.587-22.601 0-2.696-.58-5.263-1.623-7.581 8.358-6.111.732-18.366-.723-20.689 3.453-3.928 5.564-9.176 5.564-14.938z"/><path fill="none" stroke="#D3DDEA" d="M187.167 327.595s6.413 60.13 62.957 59.835 62.958-58.906 62.958-58.906"/><path fill="#5B6466" d="M403.788 353.261s-27.604-25.989-74.708-29.476l-80.465 123.876-80.465-123.876c-47.104 3.487-74.707 29.476-74.707 29.476l155.172 100.338 155.173-100.338z"/><path fill="#FFFDF3" d="M187.083 387.158a7.138 7.138 0 1 0 .166 14.274 7.138 7.138 0 0 0-.166-14.274zm.144 12.369a5.232 5.232 0 1 1-.123-10.463 5.232 5.232 0 0 1 .123 10.463z"/><path fill="#414647" d="M182.427 392.074s5.795 74.25 5.795 110.25h7.333l-3.763-110.474c-2.204-4.27-8.144-3.767-9.365.224z"/><path fill="#FFFDF3" d="M310.083 387.158a7.138 7.138 0 1 0 .166 14.274 7.138 7.138 0 0 0-.166-14.274zm.144 12.369a5.232 5.232 0 1 1-.123-10.463 5.232 5.232 0 0 1 .123 10.463z"/><path fill="#414647" d="M305.427 392.074s5.795 74.25 5.795 110.25h7.333l-3.763-110.474c-2.204-4.27-8.144-3.767-9.365.224z"/></svg>